<?xml version="1.0" encoding="UTF-8"?>
<svg width="700pt" height="700pt" version="1.1" viewBox="0 0 700 700" xmlns="http://www.w3.org/2000/svg">
 <g>
  <path d="m350 35c-64.977 0-127.29 25.812-173.24 71.758-45.945 45.949-71.758 108.27-71.758 173.24s25.812 127.29 71.758 173.24c45.949 45.945 108.27 71.758 173.24 71.758s127.29-25.812 173.24-71.758c45.945-45.949 71.758-108.27 71.758-173.24 0-43.008-11.32-85.254-32.824-122.5-21.504-37.246-52.43-68.172-89.676-89.676-37.246-21.504-79.492-32.824-122.5-32.824zm0 456.4c-41.938 0-82.93-12.441-117.79-35.75-34.863-23.312-62.023-56.441-78.051-95.195-16.023-38.754-20.191-81.391-11.969-122.52 8.2188-41.125 28.453-78.883 58.145-108.5 29.691-29.617 67.504-49.762 108.64-57.879 41.145-8.1172 83.773-3.8477 122.49 12.273 38.715 16.121 71.777 43.367 95 78.285 23.223 34.922 35.562 75.945 35.461 117.88-0.046875 56.191-22.391 110.07-62.125 149.8-39.73 39.734-93.609 62.078-149.8 62.125z"/>
  <path d="m408.8 159.43-181.3 60.375c-11.812 3.7617-21.754 11.879-27.801 22.703-6.0469 10.824-7.7539 23.539-4.7656 35.574 2.9844 12.035 10.434 22.48 20.84 29.223l57.75 38.5c2.2969 1.1719 4.4688 2.582 6.4766 4.1992 3.0703 3.0469 7.2266 4.7461 11.551 4.7266 4.2031-0.070312 8.2148-1.7656 11.199-4.7266l41.301-41.301c4.125-4.125 5.7383-10.141 4.2266-15.777-1.5117-5.6367-5.9141-10.039-11.551-11.551-5.6367-1.5078-11.648 0.10156-15.777 4.2305l-31.324 31.324-55.648-36.926c-3.3594-2.2734-5.7461-5.7188-6.6992-9.6602s-0.39844-8.0938 1.5547-11.648c1.9492-3.5547 5.1562-6.2539 8.9922-7.5664l181.12-60.375c3.8555-1.3125 8.0664-1.1289 11.793 0.50781 3.7305 1.6406 6.707 4.6211 8.3477 8.3477 1.6406 3.7305 1.8242 7.9375 0.51172 11.793l-60.203 180.78c-0.91797 2.9219-2.6641 5.5156-5.0234 7.4727-2.3594 1.9531-5.2305 3.1875-8.2734 3.5508-3.0352 0.40625-6.125-0.050781-8.9102-1.3203-2.7852-1.2695-5.1562-3.2969-6.8398-5.8555l-17.5-25.551v0.003906c-2.0117-4.2266-5.7461-7.3828-10.25-8.6641-4.5-1.2773-9.3359-0.55859-13.27 1.9805-3.9336 2.5352-6.5859 6.6445-7.2734 11.273-0.69141 4.6328 0.64453 9.332 3.668 12.91l17.5 25.551v-0.003906c8.9961 13.652 24.25 21.871 40.598 21.875h6.4766c9.0703-1.1758 17.625-4.8867 24.684-10.707 7.0547-5.8203 12.332-13.512 15.215-22.191l60.375-181.12c3.9375-11.57 3.3906-24.195-1.5273-35.379-4.918-11.188-13.855-20.125-25.043-25.043-11.184-4.918-23.809-5.4648-35.379-1.5273z"/>
 </g>
</svg>
